<svg xmlns="http://www.w3.org/2000/svg" width="256" height="256" viewBox="0 0 100 100"><rect width="100" height="100" rx="50" fill="#6aaa64"></rect><path fill="#fff" d="M50.23 39.97L50.23 39.97Q48.97 44.19 47.66 48.52Q46.36 52.83 45.01 56.80Q43.66 60.75 42.40 64.27Q41.14 67.77 40.06 70.47L40.06 70.47Q39.34 70.92 38.44 71.19Q37.54 71.47 36.01 71.47L36.01 71.47Q34.57 71.47 33.35 70.97Q32.14 70.47 31.69 69.39L31.69 69.39Q30.61 67.14 29.12 62.38Q27.64 57.60 26.06 51.89Q24.49 46.17 23.09 40.37Q21.70 34.56 20.80 30.24L20.80 30.24Q21.43 29.62 22.37 29.07Q23.32 28.53 24.67 28.53L24.67 28.53Q26.38 28.53 27.19 29.48Q28.00 30.42 28.45 32.49L28.45 32.49Q29.26 36.27 30.34 41.09Q31.42 45.91 32.50 50.49Q33.58 55.08 34.52 58.86Q35.47 62.64 35.92 64.44L35.92 64.44L36.28 64.44Q36.81 62.82 37.85 59.58Q38.89 56.34 40.23 52.16Q41.59 47.97 43.20 43.11Q44.83 38.25 46.45 33.39L46.45 33.39Q48.06 32.49 50.32 32.49L50.32 32.49Q53.65 32.49 54.46 34.84L54.46 34.84Q56.08 39.52 57.56 44.15Q59.05 48.78 60.30 52.74Q61.57 56.70 62.47 59.81Q63.37 62.91 63.91 64.53L63.91 64.53L64.36 64.53Q66.43 56.43 68.86 47.34Q71.28 38.25 72.81 29.34L72.81 29.34Q74.08 28.53 75.88 28.53L75.88 28.53Q77.41 28.53 78.31 29.25Q79.20 29.98 79.20 31.50L79.20 31.50Q79.20 32.49 78.62 35.33Q78.03 38.16 77.05 41.90Q76.06 45.63 74.84 49.91Q73.63 54.19 72.37 58.19Q71.11 62.19 69.98 65.48Q68.86 68.77 68.05 70.47L68.05 70.47Q67.59 70.83 66.56 71.15Q65.53 71.47 64.18 71.47L64.18 71.47Q62.47 71.47 61.34 71.06Q60.22 70.66 59.86 69.75L59.86 69.75Q58.87 67.33 57.74 63.99Q56.62 60.66 55.36 56.75Q54.09 52.83 52.79 48.52Q51.48 44.19 50.23 39.97Z"></path></svg>